HIERARCHY
ROOT Hips
{
	OFFSET 0.000000 0.000000 0.000000
	CHANNELS 6 Xposition Yposition Zposition Zrotation Yrotation Xrotation 
	JOINT LHipJoint
	{
		OFFSET 0.000000 0.000000 0.000000
		CHANNELS 3 Zrotation Yrotation Xrotation
		JOINT LeftUpLeg
		{
			OFFSET 1.363060 -1.794630 0.839290
			CHANNELS 3 Zrotation Yrotation Xrotation
			JOINT LeftLeg
			{
				OFFSET 2.448110 -6.726130 0.000000
				CHANNELS 3 Zrotation Yrotation Xrotation
				JOINT LeftFoot
				{
					OFFSET 2.562200 -7.039590 0.000000
					CHANNELS 3 Zrotation Yrotation Xrotation
					JOINT LeftToeBase
					{
						OFFSET 0.157640 -0.433110 2.322550
						CHANNELS 3 Zrotation Yrotation Xrotation
						End Site
						{
							OFFSET 0.000000 0.000000 0.000000
						}
					}
				}
			}
		}
	}
	JOINT RHipJoint
	{
		OFFSET 0.000000 0.000000 0.000000
		CHANNELS 3 Zrotation Yrotation Xrotation
		JOINT RightUpLeg
		{
			OFFSET -1.305520 -1.794630 0.839290
			CHANNELS 3 Zrotation Yrotation Xrotation
			JOINT RightLeg
			{
				OFFSET -2.542530 -6.985550 0.000000
				CHANNELS 3 Zrotation Yrotation Xrotation
				JOINT RightFoot
				{
					OFFSET -2.568260 -7.056230 0.000000
					CHANNELS 3 Zrotation Yrotation Xrotation
					JOINT RightToeBase
					{
						OFFSET -0.164730 -0.452590 2.363150
						CHANNELS 3 Zrotation Yrotation Xrotation
						End Site
						{
							OFFSET 0.000000 0.000000 0.000000
						}
					}
				}
			}
		}
	}
	JOINT LowerBack
	{
		OFFSET 0.000000 0.000000 0.000000
		CHANNELS 3 Zrotation Yrotation Xrotation
		JOINT Spine
		{
			OFFSET 0.028270 2.035590 -0.193380
			CHANNELS 3 Zrotation Yrotation Xrotation
			JOINT Spine1
			{
				OFFSET 0.056720 2.048850 -0.042750
				CHANNELS 3 Zrotation Yrotation Xrotation
				JOINT Neck
				{
					OFFSET 0.000000 0.000000 0.000000
					CHANNELS 3 Zrotation Yrotation Xrotation
					JOINT Neck1
					{
						OFFSET -0.054170 1.746240 0.172020
						CHANNELS 3 Zrotation Yrotation Xrotation
						JOINT Head
						{
							OFFSET 0.104070 1.761360 -0.123970
							CHANNELS 3 Zrotation Yrotation Xrotation
							End Site
							{
								OFFSET 0.000000 0.000000 0.000000
							}
						}
					}
				}
				JOINT LeftShoulder
				{
					OFFSET 0.000000 0.000000 0.000000
					CHANNELS 3 Zrotation Yrotation Xrotation
					JOINT LeftArm
					{
						OFFSET 3.362410 1.200890 -0.311210
						CHANNELS 3 Zrotation Yrotation Xrotation
						JOINT LeftForeArm
						{
							OFFSET 4.983000 -0.000000 -0.000000
							CHANNELS 3 Zrotation Yrotation Xrotation
							JOINT LeftHand
							{
								OFFSET 3.483560 -0.000000 -0.000000
								CHANNELS 3 Zrotation Yrotation Xrotation
								JOINT LeftFingerBase
								{
									OFFSET 0.000000 0.000000 0.000000
									CHANNELS 3 Zrotation Yrotation Xrotation
									JOINT LeftHandIndex1
									{
										OFFSET 0.715260 -0.000000 -0.000000
										CHANNELS 3 Zrotation Yrotation Xrotation
										End Site
										{
											OFFSET 0.000000 0.000000 0.000000
										}
									}
								}
								JOINT LThumb
								{
									OFFSET 0.000000 0.000000 0.000000
									CHANNELS 3 Zrotation Yrotation Xrotation
									End Site
									{
										OFFSET 0.000000 0.000000 0.000000
									}
								}
							}
						}
					}
				}
				JOINT RightShoulder
				{
					OFFSET 0.000000 0.000000 0.000000
					CHANNELS 3 Zrotation Yrotation Xrotation
					JOINT RightArm
					{
						OFFSET -3.136600 1.374050 -0.404650
						CHANNELS 3 Zrotation Yrotation Xrotation
						JOINT RightForeArm
						{
							OFFSET -5.241900 -0.000000 -0.000000
							CHANNELS 3 Zrotation Yrotation Xrotation
							JOINT RightHand
							{
								OFFSET -3.444170 -0.000000 -0.000000
								CHANNELS 3 Zrotation Yrotation Xrotation
								JOINT RightFingerBase
								{
									OFFSET 0.000000 0.000000 0.000000
									CHANNELS 3 Zrotation Yrotation Xrotation
									JOINT RightHandIndex1
									{
										OFFSET -0.622530 -0.000000 -0.000000
										CHANNELS 3 Zrotation Yrotation Xrotation
										End Site
										{
											OFFSET 0.000000 0.000000 0.000000
										}
									}
								}
								JOINT RThumb
								{
									OFFSET 0.000000 0.000000 0.000000
									CHANNELS 3 Zrotation Yrotation Xrotation
									End Site
									{
										OFFSET 0.000000 0.000000 0.000000
									}
								}
							}
						}
					}
				}
			}
		}
	}
}
MOTION
Frames: 5
Frame Time: 0.008333
2.364877 17.697638 -0.847359 -3.313076 -51.364854 14.714482 -1.218571 1.060079 1.096872 -1.106173 -11.253748 -22.981277 0.622623 8.607248 25.910636 3.111586 -11.982303 4.652283 1.346500 -7.346300 -20.745500 -0.714121 -1.315966 -0.421135 -7.144925 12.833344 -31.878292 -2.275483 -10.192952 26.125875 6.560463 -31.208273 11.114030 -0.333200 -3.710000 10.262100 -4.191173 -1.914661 9.716252 2.379308 -3.125293 0.774544 7.546908 -1.386288 -0.218874 -11.264806 -1.006096 -3.522294 3.203631 -1.337923 33.372438 3.304900 -2.800700 16.253800 -10.195105 -0.631900 -1.740497 -70.013637 -1.658373 50.171655 25.740880 -39.238129 -10.872372 -0.111426 -1.484930 5.103313 18.378262 16.923055 6.012300 -7.125000 0.000000 0.000000 -9.580800 49.149500 -0.988600 8.267510 1.898409 -1.257176 67.968946 -10.732661 31.074245 -44.741156 47.373842 -23.809446 1.020484 -0.419161 18.857977 -34.918568 3.714975 -2.721200 7.125000 0.000000 0.000000 -7.063500 -25.344500 -3.384400 
2.268591 17.667397 -0.928271 -3.329583 -51.229110 14.861758 -1.158310 1.049011 1.040385 -0.697172 -11.283931 -23.151299 0.686070 8.723899 26.158379 3.119948 -11.882459 4.387278 1.433400 -7.569900 -21.415000 -0.659976 -1.337652 -0.342002 -7.027854 13.104944 -31.115730 -2.144364 -10.012449 25.830746 6.208806 -29.391903 10.584587 -0.088900 -1.923300 5.293800 -4.189304 -1.726485 9.722828 2.316581 -2.879511 0.850102 7.399282 -1.266834 -0.163931 -11.199135 -1.048205 -3.474834 3.296637 -1.410227 33.252069 3.331700 -2.794100 16.178900 -10.193242 -0.623941 -1.740002 -69.817645 -1.598504 50.527485 25.806798 -39.311283 -10.943076 -0.082737 -1.466137 5.315032 17.501683 15.932882 5.395500 -7.125000 0.000000 0.000000 -10.135300 47.978400 -0.752000 8.250527 1.901222 -1.232720 67.729780 -10.648218 32.081668 -45.572847 47.781429 -24.483133 1.011520 -0.449975 19.502599 -35.452461 4.209549 -3.152100 7.125000 0.000000 0.000000 -7.405000 -24.683100 -3.665400 
2.177261 17.628963 -1.013129 -3.023194 -50.907920 14.618718 -1.122379 1.044574 0.984431 -0.418782 -11.559352 -23.264779 0.773000 8.884395 26.562651 3.132241 -11.923736 4.148016 1.459900 -7.636400 -21.615200 -0.632709 -1.373506 -0.234850 -6.918163 13.037060 -30.265349 -2.007303 -9.823191 25.557567 5.658352 -26.893621 10.270886 -0.000700 -0.176300 0.484500 -4.263909 -1.558284 10.076207 2.251019 -2.672587 0.859394 7.319238 -1.153308 -0.389802 -11.367677 -1.141263 -3.411991 3.486815 -1.538990 33.326087 3.442600 -2.849500 16.244200 -10.195278 -0.604797 -1.748722 -69.682798 -1.473070 50.956098 25.891598 -39.397458 -11.021479 -0.051091 -1.455041 5.596233 16.527644 15.315791 4.887700 -7.125000 0.000000 0.000000 -10.893600 47.191500 -0.595900 8.227153 1.923812 -1.208965 67.486100 -10.681872 32.969167 -46.401059 48.165572 -25.155460 1.018714 -0.454578 20.137375 -35.951047 4.019139 -3.059500 7.125000 0.000000 0.000000 -7.804200 -24.897400 -3.827200 
2.083402 17.585877 -1.091513 -2.789390 -50.699927 14.463832 -1.076815 1.038099 0.925200 -0.122230 -11.826196 -23.375110 0.882462 9.074032 27.060976 3.139538 -11.926096 3.843096 1.422100 -7.541300 -21.329300 -0.605669 -1.398622 -0.125131 -6.700412 12.892285 -29.540454 -1.857175 -9.644170 25.342996 5.164479 -24.356989 9.326423 -0.056300 1.531100 -4.211400 -4.177734 -1.359851 10.265784 2.141052 -2.409656 0.883781 7.056909 -1.013793 -0.535651 -11.589961 -1.203984 -3.181435 3.849714 -1.657232 33.248869 3.650400 -2.884300 16.180400 -10.201709 -0.576505 -1.754647 -69.462970 -1.344528 51.501544 25.994522 -39.492817 -11.092516 -0.049614 -1.445866 5.804888 16.493381 14.938035 4.766500 -7.125000 0.000000 0.000000 -10.817800 46.793700 -0.484400 8.194551 1.955148 -1.187876 67.516669 -10.750353 33.535396 -47.128644 48.494741 -25.748956 1.018581 -0.472110 21.113743 -36.454923 3.917667 -3.036900 7.125000 0.000000 0.000000 -8.195100 -24.992500 -4.004400 
1.987014 17.536015 -1.174651 -2.682562 -50.545977 14.496890 -1.003568 1.012480 0.844551 0.253736 -11.962786 -23.643018 1.010578 9.295830 27.634085 3.162394 -12.020601 3.590503 1.417700 -7.530200 -21.296000 -0.573798 -1.406506 -0.017004 -6.400490 12.826473 -28.900721 -1.684041 -9.459790 25.153096 4.840180 -22.038350 6.999336 -0.101300 2.052200 -5.649800 -4.111243 -1.195933 10.308646 2.058010 -2.192632 0.969000 6.840357 -0.908568 -0.480089 -11.598408 -1.214089 -3.204629 4.030951 -1.676397 33.197331 3.741100 -2.863500 16.163200 -10.202064 -0.569699 -1.753701 -69.254603 -1.336696 51.814819 26.075525 -39.564750 -11.145683 -0.061864 -1.431891 6.072112 16.830364 14.475827 4.735700 -7.125000 0.000000 0.000000 -10.365800 46.358100 -0.351200 8.177304 1.968603 -1.170192 67.561089 -10.487017 34.322543 -47.746312 48.765946 -26.244775 1.013829 -0.492665 22.057159 -36.891641 3.887732 -3.064300 7.125000 0.000000 0.000000 -8.524900 -24.996800 -4.168000 
